# xmcd
# 
# Track frame offsets:
#     150
#     21984
#     43001
#     65372
#     87237
# 
# Disc length: 1440
# 
# Revision: 0
# Processed by: cddbd v1.5.2PL0 Copyright (c) Steve Scherf et al.
# Submitted via: BonkEnc v1.0.6
# 
DISCID=3a059e05
DTITLE=AAA - BEYOND～カラダノカナタ
DYEAR=2008
DGENRE=JPop
TTITLE0=BEYOND～カラダノカナタ
TTITLE1=One Night Animal
TTITLE2=MIRAGE[83key Remix]
TTITLE3=BEYOND～カラダノカナタ -Instrumental-
TTITLE4=One Night Animal -Instrumental-
EXTD=
EXTT0=
EXTT1=
EXTT2=
EXTT3=
EXTT4=
PLAYORDER=
